<svg xmlns="http://www.w3.org/2000/svg" width="500" height="281" viewBox="0 0 500 281"><rect width="100%" height="100%" fill="#DDDDDD"/><path fill="#999999" d="m115.69 124.03-1.68 9.94q1.58-.33 3.04-.48 1.45-.15 2.8-.15 3.76 0 6.63 1.12t4.82 3.1q1.95 1.98 2.94 4.64.99 2.66.99 5.73 0 3.79-1.34 6.93-1.33 3.13-3.71 5.36-2.38 2.23-5.63 3.45-3.25 1.22-7.08 1.22-2.24 0-4.25-.46-2.02-.47-3.78-1.24-1.77-.78-3.27-1.78-1.5-1.01-2.69-2.13l2.51-3.47q.79-1.12 2.08-1.12.82 0 1.68.53t1.97 1.15q1.1.63 2.6 1.16 1.5.53 3.62.53 2.24 0 3.96-.73 1.71-.73 2.85-2.03 1.14-1.3 1.72-3.1.57-1.8.57-3.91 0-3.89-2.26-6.09-2.26-2.19-6.68-2.19-3.4 0-6.96 1.25l-5.08-1.45 3.96-23.17h23.56v3.47q0 1.75-1.09 2.84-1.09 1.08-3.7 1.08h-13.1Zm59.83 16.47q0 6.24-1.33 10.84-1.34 4.6-3.7 7.61-2.36 3-5.58 4.47-3.22 1.47-6.94 1.47-3.73 0-6.92-1.47-3.18-1.47-5.53-4.47-2.34-3.01-3.66-7.61-1.32-4.6-1.32-10.84 0-6.27 1.32-10.86 1.32-4.58 3.66-7.59 2.35-3 5.53-4.47 3.19-1.47 6.92-1.47 3.72 0 6.94 1.47t5.58 4.47q2.36 3.01 3.7 7.59 1.33 4.59 1.33 10.86Zm-8.41 0q0-5.18-.76-8.58-.76-3.4-2.03-5.41-1.27-2.01-2.92-2.82t-3.43-.81q-1.75 0-3.39.81-1.63.81-2.88 2.82-1.26 2.01-2 5.41-.74 3.4-.74 8.58t.74 8.58q.74 3.4 2 5.41 1.25 2.02 2.88 2.82 1.64.81 3.39.81 1.78 0 3.43-.81 1.65-.8 2.92-2.82 1.27-2.01 2.03-5.41.76-3.4.76-8.58Zm46.69 0q0 6.24-1.33 10.84-1.34 4.6-3.7 7.61-2.36 3-5.58 4.47-3.22 1.47-6.94 1.47-3.73 0-6.92-1.47-3.18-1.47-5.53-4.47-2.34-3.01-3.66-7.61-1.32-4.6-1.32-10.84 0-6.27 1.32-10.86 1.32-4.58 3.66-7.59 2.35-3 5.53-4.47 3.19-1.47 6.92-1.47 3.72 0 6.94 1.47t5.58 4.47q2.36 3.01 3.7 7.59 1.33 4.59 1.33 10.86Zm-8.41 0q0-5.18-.76-8.58-.76-3.4-2.03-5.41-1.27-2.01-2.92-2.82t-3.43-.81q-1.75 0-3.39.81-1.63.81-2.88 2.82-1.26 2.01-2 5.41-.74 3.4-.74 8.58t.74 8.58q.74 3.4 2 5.41 1.25 2.02 2.88 2.82 1.64.81 3.39.81 1.78 0 3.43-.81 1.65-.8 2.92-2.82 1.27-2.01 2.03-5.41.76-3.4.76-8.58Zm60.82 12.94-4.33 4.25-11.18-11.18-11.29 11.25-4.32-4.26 11.28-11.32-10.76-10.75 4.29-4.29 10.76 10.75 10.69-10.69 4.36 4.29-10.72 10.73 11.22 11.22Zm39.73 3.33h12.24q1.32 0 2.1.74.77.74.77 1.97v4.88h-32.73v-2.71q0-.82.34-1.73.35-.91 1.11-1.63l14.48-14.52q1.82-1.85 3.26-3.53 1.43-1.69 2.39-3.34.95-1.65 1.47-3.35.51-1.7.51-3.58 0-1.71-.5-3.02-.49-1.3-1.4-2.19-.91-.89-2.18-1.34-1.27-.44-2.85-.44-1.45 0-2.69.41t-2.2 1.16q-.95.74-1.61 1.73-.66.99-.99 2.18-.56 1.51-1.46 2.01-.89.49-2.57.23l-4.29-.76q.5-3.43 1.91-6.02 1.42-2.59 3.55-4.32 2.13-1.74 4.89-2.61 2.75-.88 5.92-.88 3.3 0 6.04.98 2.74.97 4.68 2.75 1.95 1.79 3.04 4.29 1.09 2.51 1.09 5.58 0 2.64-.78 4.88-.77 2.25-2.07 4.29-1.31 2.05-3.06 3.96-1.75 1.92-3.66 3.9l-10.76 10.99q1.55-.47 3.09-.71 1.53-.25 2.92-.25Zm37.29 1.75q2.01 0 3.53-.58t2.56-1.6q1.04-1.02 1.56-2.44.53-1.42.53-3.07 0-3.93-2.18-5.94-2.17-2.01-6-2.01t-6.01 2.01q-2.18 2.01-2.18 5.94 0 1.65.53 3.07t1.57 2.44q1.04 1.02 2.56 1.6 1.51.58 3.53.58Zm0-36.27q-1.82 0-3.14.56t-2.19 1.5q-.88.94-1.29 2.17-.41 1.22-.41 2.57 0 1.42.35 2.76.34 1.33 1.17 2.37.82 1.04 2.17 1.67 1.36.62 3.34.62 1.98 0 3.33-.62 1.35-.63 2.18-1.67.82-1.04 1.17-2.37.35-1.34.35-2.76 0-1.35-.43-2.57-.43-1.23-1.29-2.17-.86-.94-2.18-1.5-1.32-.56-3.13-.56Zm8.05 17.23q4.36 1.42 6.43 4.34 2.08 2.92 2.08 7.14 0 3.17-1.2 5.74-1.21 2.58-3.38 4.39-2.18 1.82-5.23 2.81-3.06.99-6.75.99-3.7 0-6.75-.99t-5.23-2.81q-2.18-1.81-3.38-4.39-1.21-2.57-1.21-5.74 0-4.22 2.08-7.14t6.44-4.34q-3.47-1.45-5.2-4.13-1.73-2.67-1.73-6.43 0-2.71 1.1-5.05 1.11-2.34 3.09-4.08 1.98-1.73 4.73-2.7 2.76-.98 6.06-.98t6.05.98q2.76.97 4.74 2.7 1.98 1.74 3.08 4.08 1.11 2.34 1.11 5.05 0 3.76-1.73 6.43-1.74 2.68-5.2 4.13Zm36.66 18.77h8.58v6.11h-26.4v-6.11h9.67v-27.81q0-1.65.1-3.4l-6.86 5.74q-.6.46-1.17.58-.58.11-1.09.01-.52-.1-.91-.34-.4-.25-.6-.55l-2.57-3.53 14.55-12.37h6.7v41.67Z"/></svg>